<svg width="336" height="162" viewBox="0 0 336 162" fill="none" xmlns="http://www.w3.org/2000/svg">
<g clip-path="url(#clip0_13_92)">
<path d="M127.378 105.878C122.601 106.071 121.308 109.406 123.916 109.62C128.94 110.059 127.619 120.197 115.533 120.197C104.472 119.533 110.928 100.333 113.134 93.2465L122.682 66.7835C122.934 66.0663 122.317 65.8736 122.215 65.8308C121.786 65.6541 121.48 65.804 120.744 66.2536C118.555 67.3402 115.925 67.6988 114.079 67.8915C113.102 67.9664 112.093 67.9718 111.707 69.069C108.213 79.9829 100.098 95.3233 100.484 107.136C99.8672 130.281 129.38 123.29 132.906 112.617C134.108 109.77 133.668 105.755 127.378 105.878Z" fill="#FFAC30"/>
<path d="M76.5642 77.7188C76.5642 77.7188 72.1204 75.2192 68.6265 73.4261C34.1335 56.9402 52.0213 36.8736 77.8361 36.1242C89.7453 36.1242 101.236 38.565 109.243 44.2922C113.451 47.3003 114.583 51.7215 112.485 60.2481C112.345 60.8101 112.426 61.34 112.721 61.7789C114.519 63.5453 117.122 62.5765 119.87 61.142C123.304 59.3489 124.796 56.0464 122.88 51.4164C107.805 28.8769 50.0839 23.8776 39.1784 52.4869C34.9278 63.5506 46.955 74.6304 61.6764 81.0909C96.4753 96.3724 76.2851 119.731 51.3129 120.282C23.4587 119.538 9.34377 105.466 10.4064 95.5642C10.5996 93.7604 10.9002 92.4008 11.5871 90.0725C12.1238 86.7807 6.92867 86.7646 4.09495 87.7655C1.25586 88.6112 -0.177105 90.399 0.0161033 92.3098C0.697699 98.9791 6.02703 104.685 9.78386 108.335C14.6141 112.949 28.4553 123.36 52.4829 124.5C59.7389 124.901 67.2741 123.965 76.0865 119.908C93.7973 112.286 95.9333 87.9636 76.5642 77.7188Z" fill="#FFAC30"/>
<path d="M335.388 85.8867C334.105 81.5672 327.853 75.1228 317.769 70.9531C318.112 48.4082 313.588 37.3499 289.211 35.4604C261.438 35.4604 245.316 48.1353 229.156 69.2831C218.401 84.3934 205.327 101.575 191.518 110.642C172.578 123.927 153.627 118.666 149.141 98.3796C143.988 79.0944 153.273 53.7447 170.818 43.9549C182.904 36.6915 203.261 35.5461 202.069 52.9686C202.15 59.9644 204.677 60.2267 210.409 55.4361C222.281 43.9763 203.808 35.4712 188.271 35.5675C154.851 34.8503 124.169 76.5626 141.123 106.804C153.622 127.926 182.12 125.469 200.711 112.393C221.873 98.0852 231.04 82.0222 243.625 64.6211C269.332 28.6627 315.584 30.0918 309.949 68.4267C291.847 63.861 255.534 67.5329 245.954 92.7862C243.249 100.585 243.528 108.036 247.232 113.565C256.79 128.07 284.032 124.243 295.963 115.909C311.173 105.081 315.235 94.3866 317.457 74.7481C320.935 75.9042 324.853 77.5475 327.815 79.7367C339.977 88.7396 326.189 89.5265 329.635 92.0796C333.075 94.6274 337.664 93.5462 335.388 85.8867ZM301.657 98.7596C289.126 119.752 246.292 129.976 252.883 98.5294C260.751 75.1602 288.755 68.1324 309.182 72.5643C307.437 87.2356 305.317 92.6309 301.657 98.7596Z" fill="#FFAC30"/>
<path d="M101.504 161.695C100.973 161.492 100.543 161.171 100.211 160.737C99.8779 160.304 99.7169 159.747 99.7169 159.083C99.7169 158.457 99.9209 157.895 100.334 157.392C100.747 156.889 101.322 156.482 102.057 156.161C101.66 155.652 101.37 155.192 101.193 154.769C101.016 154.346 100.924 153.902 100.924 153.436C100.935 152.73 101.198 152.168 101.708 151.739C102.218 151.311 102.878 151.097 103.688 151.097C104.177 151.097 104.612 151.188 104.987 151.37C105.363 151.552 105.658 151.804 105.867 152.125C106.077 152.441 106.179 152.794 106.179 153.185C106.179 153.763 105.985 154.287 105.604 154.769C105.223 155.251 104.595 155.711 103.731 156.145C103.973 156.402 104.37 156.819 104.923 157.397C105.352 157.841 105.873 158.355 106.49 158.933C106.587 158.596 106.64 158.28 106.64 157.981C106.64 157.584 106.554 157.242 106.377 156.953C106.205 156.664 105.91 156.509 105.502 156.493V156H108.116V156.61L106.876 156.551C107.182 156.819 107.338 157.269 107.338 157.89C107.338 158.387 107.241 158.896 107.037 159.426L107.338 159.693C107.477 159.822 107.628 159.956 107.783 160.095C108.213 160.48 108.588 160.775 108.921 160.973C109.249 161.171 109.501 161.272 109.667 161.272V161.765H108.277C108.164 161.765 107.95 161.663 107.622 161.454C107.295 161.246 106.898 160.94 106.426 160.528C105.658 161.513 104.59 162 103.216 162C102.615 162 102.041 161.899 101.504 161.695ZM105.964 160.111C105.765 159.934 105.621 159.8 105.529 159.709L105.304 159.501C105.154 159.351 104.74 158.944 104.059 158.275C103.377 157.606 102.84 157.049 102.454 156.6C102.025 156.857 101.713 157.204 101.515 157.633C101.316 158.066 101.214 158.473 101.214 158.858C101.214 159.651 101.445 160.25 101.901 160.651C102.357 161.053 102.91 161.256 103.56 161.256C104.574 161.256 105.374 160.876 105.964 160.111ZM104.633 154.587C104.912 154.143 105.052 153.688 105.052 153.233C105.052 152.746 104.923 152.35 104.671 152.039C104.418 151.734 104.064 151.579 103.619 151.579C103.2 151.579 102.857 151.734 102.588 152.039C102.32 152.35 102.186 152.773 102.186 153.318C102.186 154.062 102.594 154.887 103.409 155.791C103.946 155.433 104.354 155.031 104.633 154.587Z" fill="white"/>
<path d="M126.256 161.272C126.605 161.261 126.852 161.181 127.002 161.031C127.152 160.881 127.238 160.705 127.254 160.501C127.276 160.298 127.281 159.945 127.281 159.436V153.002C127.281 152.585 127.297 152.226 127.324 151.932L126.251 151.991V151.338H133.432L133.507 153.944H133.013C133.013 153.131 132.836 152.574 132.482 152.274C132.128 151.975 131.634 151.835 130.995 151.857L129.713 151.889C129.353 151.9 129.095 151.964 128.934 152.092C128.773 152.215 128.677 152.392 128.634 152.612C128.596 152.836 128.575 153.184 128.575 153.661V156.043L131.382 156.059L131.28 154.779H131.934V157.905H131.441C131.441 157.541 131.398 157.258 131.306 157.065C131.215 156.872 131.081 156.744 130.899 156.679C130.716 156.615 130.458 156.583 130.131 156.583L129.67 156.599L128.58 156.642V160.052C128.58 160.565 128.564 160.956 128.537 161.213L131.387 161.17C132.085 161.16 132.616 160.983 132.986 160.64C133.351 160.298 133.539 159.704 133.539 158.863H134.049L133.958 161.764H126.251V161.272H126.256Z" fill="white"/>
<path d="M142.11 153.993C141.75 153.147 141.536 152.472 141.466 151.969L140.629 151.996V151.343H144.09V151.835L144.074 151.852C143.747 151.873 143.505 151.943 143.35 152.066C143.194 152.189 143.119 152.371 143.119 152.612C143.119 152.842 143.189 153.12 143.328 153.463L143.715 154.415C143.817 154.662 143.967 155.042 144.171 155.545C144.375 156.053 144.568 156.514 144.745 156.931L145.132 157.841C145.518 158.724 145.792 159.377 145.953 159.805H145.98L146.532 158.21L146.726 157.675L148.04 153.998L148.384 153.045C148.572 152.51 148.717 152.141 148.819 151.942L147.67 152.001V151.348H150.702V151.841C150.262 151.862 149.93 151.975 149.693 152.183C149.457 152.392 149.248 152.761 149.06 153.302L145.91 161.925H145.491L142.11 153.993Z" fill="white"/>
<path d="M157.234 161.272C157.583 161.261 157.83 161.181 157.98 161.031C158.13 160.881 158.216 160.705 158.232 160.501C158.254 160.298 158.259 159.945 158.259 159.436V153.002C158.259 152.585 158.275 152.226 158.302 151.932L157.229 151.991V151.338H164.409L164.485 153.944H163.991C163.991 153.131 163.814 152.574 163.46 152.274C163.105 151.975 162.612 151.835 161.973 151.857L160.69 151.889C160.331 151.9 160.073 151.964 159.912 152.092C159.751 152.215 159.654 152.392 159.611 152.612C159.574 152.836 159.552 153.184 159.552 153.661V156.043L162.359 156.059L162.257 154.779H162.912V157.905H162.418C162.418 157.541 162.375 157.258 162.284 157.065C162.193 156.872 162.059 156.744 161.876 156.679C161.694 156.615 161.436 156.583 161.109 156.583L160.647 156.599L159.558 156.642V160.052C159.558 160.565 159.542 160.956 159.515 161.213L162.365 161.17C163.062 161.16 163.594 160.983 163.964 160.64C164.329 160.298 164.517 159.704 164.517 158.863H165.027L164.935 161.764H157.229V161.272H157.234Z" fill="white"/>
<path d="M174.183 153.318H174.167L174.209 159.693C174.209 160.357 174.199 160.849 174.183 161.165L175.256 161.106V161.759H172.524V161.267C172.921 161.267 173.184 161.154 173.313 160.924C173.442 160.694 173.506 160.416 173.506 160.089L173.522 151.927L172.524 151.986V151.333H174.301L180.66 159.822H180.677L180.693 153.003C180.693 152.585 180.709 152.226 180.736 151.932L179.662 151.991V151.338H182.41V151.83C182.11 151.841 181.889 151.895 181.745 152.002C181.6 152.109 181.508 152.248 181.471 152.424C181.433 152.601 181.412 152.842 181.412 153.142V153.661L181.38 162H180.66L174.183 153.318Z" fill="white"/>
<path d="M192.13 161.272C192.559 161.251 192.833 161.133 192.956 160.913C193.079 160.694 193.144 160.357 193.144 159.902V159.441L193.16 151.894L191.625 151.91C191.008 151.91 190.568 152.119 190.305 152.526C190.042 152.938 189.908 153.591 189.908 154.485H189.355L189.446 151.343H198.151L198.242 154.485H197.674C197.663 153.859 197.604 153.361 197.486 152.986C197.373 152.612 197.174 152.333 196.906 152.151C196.632 151.969 196.241 151.878 195.736 151.878H194.47L194.453 159.993C194.453 160.517 194.437 160.913 194.41 161.17L195.65 161.111V161.764H192.14V161.272H192.13Z" fill="white"/>
<path d="M207.565 161.213C206.77 160.689 206.18 160.009 205.804 159.179C205.423 158.35 205.235 157.472 205.235 156.551C205.235 155.668 205.434 154.806 205.826 153.977C206.218 153.142 206.808 152.456 207.586 151.916C208.364 151.375 209.314 151.102 210.431 151.102C211.574 151.102 212.551 151.375 213.35 151.916C214.15 152.456 214.751 153.142 215.148 153.977C215.545 154.812 215.744 155.668 215.744 156.551C215.744 157.424 215.545 158.28 215.154 159.12C214.762 159.961 214.171 160.651 213.393 161.192C212.61 161.732 211.665 162.005 210.549 162.005C209.357 162 208.364 161.738 207.565 161.213ZM212.577 160.732C213.13 160.287 213.549 159.72 213.833 159.024C214.118 158.328 214.257 157.6 214.257 156.835C214.257 155.989 214.102 155.176 213.796 154.383C213.49 153.591 213.039 152.949 212.454 152.446C211.869 151.943 211.182 151.691 210.393 151.691C209.615 151.691 208.949 151.911 208.391 152.355C207.833 152.799 207.414 153.372 207.13 154.073C206.846 154.779 206.706 155.513 206.706 156.278C206.706 157.06 206.851 157.847 207.141 158.639C207.431 159.426 207.865 160.084 208.456 160.603C209.041 161.122 209.754 161.385 210.592 161.385C211.359 161.39 212.025 161.17 212.577 160.732Z" fill="white"/>
<path d="M225.281 161.807C224.809 161.679 224.395 161.492 224.036 161.24L224.111 161.882H223.333L223.241 158.708H223.821C223.869 159.559 224.165 160.218 224.701 160.683C225.238 161.144 225.92 161.374 226.746 161.374C227.352 161.374 227.862 161.208 228.276 160.876C228.689 160.544 228.893 160.089 228.893 159.511C228.893 159.083 228.775 158.719 228.544 158.414C228.308 158.109 228.023 157.857 227.68 157.654C227.336 157.45 226.869 157.215 226.284 156.947C225.619 156.631 225.088 156.353 224.696 156.112C224.304 155.877 223.966 155.561 223.687 155.165C223.408 154.774 223.268 154.287 223.268 153.714C223.268 153.318 223.36 152.922 223.547 152.521C223.73 152.125 224.052 151.787 224.503 151.509C224.953 151.231 225.555 151.092 226.301 151.092C226.746 151.092 227.197 151.15 227.653 151.263C228.104 151.375 228.522 151.573 228.898 151.852L228.839 151.209H229.601V154.485H229.065C229.016 153.704 228.764 153.04 228.308 152.499C227.857 151.959 227.218 151.686 226.403 151.686C225.807 151.686 225.335 151.852 224.996 152.183C224.658 152.515 224.487 152.933 224.487 153.425C224.487 153.821 224.599 154.164 224.83 154.453C225.061 154.742 225.34 154.977 225.667 155.17C225.995 155.363 226.456 155.593 227.057 155.871C227.734 156.176 228.281 156.455 228.694 156.706C229.107 156.953 229.456 157.279 229.746 157.681C230.036 158.082 230.181 158.574 230.181 159.163C230.181 159.72 230.047 160.212 229.768 160.635C229.494 161.063 229.091 161.395 228.565 161.631C228.039 161.866 227.412 161.989 226.682 161.989C226.225 162 225.753 161.936 225.281 161.807Z" fill="white"/>
<path d="M82.8058 10.3142C82.0384 9.8914 81.4426 9.28656 81.0133 8.50509C80.5839 7.71827 80.3693 6.79228 80.3693 5.72177C80.3693 4.74761 80.5678 3.83232 80.9596 2.96521C81.3514 2.10345 81.9418 1.39692 82.7307 0.856311C83.5143 0.315704 84.4642 0.0427246 85.5698 0.0427246C86.1065 0.0427246 86.6539 0.112308 87.2067 0.256826C87.7595 0.401345 88.2425 0.604741 88.6611 0.861663L88.6021 0.144423H89.4232V3.55399H88.8865C88.8168 2.63871 88.484 1.92682 87.8937 1.40762C87.3033 0.893779 86.5627 0.631504 85.6771 0.631504C84.9687 0.631504 84.3247 0.834901 83.745 1.24169C83.1654 1.64849 82.6985 2.2105 82.355 2.9331C82.0115 3.65569 81.8398 4.46392 81.8398 5.3685C81.8398 6.29984 82.0115 7.13484 82.3496 7.86814C82.6878 8.60144 83.1601 9.17951 83.7665 9.59701C84.373 10.0145 85.0653 10.2233 85.8435 10.2233C86.2728 10.2233 86.7129 10.159 87.1638 10.0359C87.6146 9.91281 88.0278 9.72547 88.3981 9.47925V6.21956L87.3516 6.27843V5.62542H90.7274V6.11786C90.2497 6.11786 89.9492 6.29984 89.8311 6.66382C89.713 7.02779 89.654 7.43458 89.654 7.8949V10.1697H89.2515C88.8329 10.1697 88.2962 10.2982 87.6414 10.5551C87.3409 10.6729 86.9867 10.7692 86.5788 10.8388C86.1709 10.9084 85.7952 10.9405 85.4571 10.9405C84.4535 10.9458 83.5733 10.7317 82.8058 10.3142Z" fill="white"/>
<path d="M96.9154 10.2126C97.1623 10.2126 97.3609 10.1538 97.5111 10.0414C97.6614 9.92896 97.7848 9.77909 97.8761 9.59711C97.9727 9.41512 98.08 9.13679 98.2142 8.77281L98.3645 8.35532L101.44 0H101.799L105.127 8.47307C105.234 8.7407 105.331 9.02974 105.411 9.34554C105.492 9.65598 105.524 9.9129 105.513 10.1109L106.528 10.0521V10.7051H103.109V10.2126C103.694 10.2019 103.989 9.96643 103.989 9.49541C103.989 9.30807 103.941 9.07256 103.839 8.79422L103.318 7.39186L99.4378 7.48285C99.2876 7.88964 99.1158 8.41955 98.9173 9.07791C98.8207 9.40441 98.6918 9.74698 98.5469 10.1056L99.7116 10.0467V10.7051H96.9208V10.2126H96.9154ZM103.109 6.85125L102.046 4.00905L101.375 2.17848H101.348L100.721 3.85918L99.9155 6.12331L99.6633 6.85125H103.109Z" fill="white"/>
<path d="M115.227 10.7532C114.755 10.6247 114.342 10.4374 113.982 10.1858L114.057 10.8281H113.279L113.188 7.65404H113.773C113.821 8.51044 114.116 9.16346 114.653 9.62913C115.19 10.0894 115.871 10.3196 116.698 10.3196C117.304 10.3196 117.814 10.1537 118.227 9.82182C118.641 9.48996 118.845 9.03499 118.845 8.45692C118.845 8.02872 118.727 7.66474 118.496 7.365C118.26 7.05991 117.975 6.80834 117.632 6.60494C117.288 6.40154 116.821 6.16603 116.236 5.89841C115.571 5.5826 115.039 5.30427 114.648 5.06341C114.256 4.82254 113.918 4.5121 113.639 4.11601C113.36 3.71992 113.22 3.23819 113.22 2.66547C113.22 2.26938 113.311 1.87329 113.499 1.47185C113.682 1.07577 114.004 0.738555 114.454 0.460223C114.905 0.181891 115.506 0.0427246 116.252 0.0427246C116.698 0.0427246 117.149 0.101603 117.605 0.214006C118.061 0.326409 118.474 0.524453 118.85 0.802785L118.791 0.160481H119.553V3.43624H119.016C118.968 2.64941 118.716 1.99105 118.26 1.45044C117.803 0.909836 117.17 0.636857 116.354 0.636857C115.759 0.636857 115.286 0.802785 114.948 1.13464C114.61 1.4665 114.438 1.884 114.438 2.37643C114.438 2.77252 114.551 3.11508 114.782 3.40412C115.013 3.69316 115.292 3.92867 115.619 4.12136C115.946 4.3087 116.408 4.54421 117.009 4.82254C117.685 5.13299 118.233 5.40597 118.646 5.65754C119.059 5.90376 119.408 6.23026 119.698 6.6317C119.988 7.03314 120.133 7.52558 120.133 8.11436C120.133 8.67102 119.998 9.16346 119.719 9.58631C119.446 10.0145 119.043 10.3464 118.517 10.5819C117.991 10.8227 117.363 10.9405 116.633 10.9405C116.172 10.9459 115.7 10.8816 115.227 10.7532Z" fill="white"/>
<path d="M129.868 10.2127C130.298 10.1912 130.571 10.0735 130.695 9.85403C130.818 9.63458 130.883 9.29737 130.883 8.84241V8.38209L130.899 0.835003L129.364 0.851061C128.747 0.851061 128.306 1.05446 128.043 1.4666C127.78 1.87875 127.646 2.53176 127.646 3.42563H127.094L127.185 0.283691H135.89L135.981 3.42563H135.412C135.401 2.79939 135.342 2.3016 135.224 1.92692C135.112 1.55224 134.913 1.27926 134.645 1.09193C134.371 0.909939 133.979 0.818946 133.475 0.818946H132.208L132.192 8.9334C132.192 9.45795 132.176 9.85403 132.149 10.111L133.389 10.0521V10.7051H129.879V10.2127H129.868Z" fill="white"/>
<path d="M143.108 10.2125C143.457 10.2018 143.704 10.1215 143.854 9.97168C144.005 9.82181 144.09 9.64517 144.107 9.44178C144.128 9.23838 144.133 8.88511 144.133 8.37662V1.94822C144.133 1.53072 144.149 1.1721 144.176 0.877712L143.103 0.93659V0.28358C144.139 0.26217 144.917 0.251465 145.448 0.251465C145.926 0.251465 146.285 0.256817 146.522 0.267522C147.928 0.288933 148.953 0.524444 149.608 0.974058C150.257 1.42367 150.584 2.07668 150.584 2.93309C150.595 3.61821 150.391 4.23376 149.973 4.77971C149.554 5.32567 148.829 5.70035 147.794 5.9091C147.965 6.03756 148.116 6.19278 148.255 6.36942C148.395 6.54605 148.582 6.82438 148.824 7.20441L149.838 8.79947C150.058 9.14739 150.241 9.41502 150.386 9.597C150.531 9.77899 150.702 9.92886 150.906 10.0413C151.11 10.1537 151.363 10.2125 151.658 10.2125V10.705H149.774C149.506 10.4748 149.28 10.2393 149.092 9.99844C148.91 9.75758 148.69 9.44178 148.443 9.05104L147.445 7.45598L147.252 7.14554C147.09 6.87791 146.951 6.65846 146.833 6.49253C146.715 6.32125 146.586 6.17673 146.446 6.04827C146.355 6.05897 146.216 6.06432 146.028 6.06432C145.76 6.06432 145.561 6.05897 145.432 6.04827V8.93864C145.432 9.46319 145.416 9.85928 145.389 10.1162L146.463 10.0573V10.705H143.103V10.2125H143.108ZM149.141 3.09902C149.141 2.34431 148.921 1.77694 148.486 1.40226C148.046 1.02758 147.375 0.834892 146.468 0.834892C146.119 0.834892 145.872 0.904475 145.722 1.04364C145.572 1.18281 145.486 1.34874 145.47 1.55213C145.448 1.75018 145.437 2.10344 145.437 2.60658V5.46484C145.738 5.48625 145.953 5.49695 146.092 5.49695C148.126 5.49695 149.141 4.69407 149.141 3.09902Z" fill="white"/>
<path d="M160.653 10.1537C159.858 9.62912 159.268 8.94935 158.892 8.11971C158.511 7.29006 158.323 6.41225 158.323 5.49161C158.323 4.60844 158.522 3.75204 158.914 2.91704C159.306 2.08204 159.896 1.39692 160.674 0.856311C161.452 0.315704 162.402 0.0427246 163.519 0.0427246C164.662 0.0427246 165.639 0.315704 166.438 0.856311C167.238 1.39692 167.839 2.0874 168.236 2.91704C168.633 3.75204 168.832 4.60844 168.832 5.49161C168.832 6.36408 168.633 7.22048 168.241 8.06083C167.85 8.90118 167.259 9.59166 166.481 10.1323C165.698 10.6729 164.753 10.9459 163.637 10.9459C162.445 10.9459 161.452 10.6836 160.653 10.1537ZM165.665 9.67194C166.218 9.23304 166.637 8.66032 166.921 7.96448C167.206 7.26865 167.345 6.54071 167.345 5.7753C167.345 4.92959 167.19 4.11601 166.884 3.32383C166.578 2.53701 166.127 1.88935 165.542 1.38621C164.957 0.883074 164.27 0.636857 163.481 0.636857C162.703 0.636857 162.037 0.856311 161.479 1.30057C160.921 1.74483 160.502 2.31755 160.218 3.01874C159.933 3.72527 159.794 4.45857 159.794 5.22398C159.794 6.01081 159.939 6.79763 160.229 7.58445C160.518 8.37128 160.953 9.02964 161.544 9.54884C162.129 10.068 162.842 10.3303 163.68 10.3303C164.447 10.3357 165.113 10.1109 165.665 9.67194Z" fill="white"/>
<path d="M177.838 2.26413H177.821L177.864 8.63901C177.864 9.30272 177.854 9.79516 177.838 10.111L178.911 10.0521V10.7051H176.179V10.2127C176.576 10.2127 176.839 10.1003 176.968 9.87009C177.097 9.63993 177.161 9.3616 177.161 9.0351L177.177 0.872471L176.179 0.931349V0.283691H177.956L184.315 8.77282H184.331L184.348 1.95368C184.348 1.53619 184.364 1.17757 184.391 0.883176L183.317 0.942054V0.283691H186.065V0.776125C185.764 0.78683 185.544 0.840356 185.399 0.947407C185.255 1.0491 185.163 1.19362 185.126 1.37026C185.088 1.54689 185.067 1.78776 185.067 2.0875V2.60669L185.035 10.946H184.315L177.838 2.26413Z" fill="white"/>
<path d="M195.623 10.1537C194.829 9.62912 194.239 8.94935 193.863 8.11971C193.482 7.29006 193.294 6.41225 193.294 5.49161C193.294 4.60844 193.493 3.75204 193.884 2.91704C194.276 2.08204 194.867 1.39692 195.645 0.856311C196.423 0.315704 197.373 0.0427246 198.489 0.0427246C199.632 0.0427246 200.609 0.315704 201.409 0.856311C202.209 1.39692 202.81 2.0874 203.207 2.91704C203.604 3.75204 203.803 4.60844 203.803 5.49161C203.803 6.36408 203.604 7.22048 203.212 8.06083C202.82 8.90118 202.23 9.59166 201.452 10.1323C200.668 10.6729 199.724 10.9459 198.607 10.9459C197.416 10.9459 196.418 10.6836 195.623 10.1537ZM200.631 9.67194C201.183 9.23304 201.602 8.66032 201.887 7.96448C202.171 7.26865 202.311 6.54071 202.311 5.7753C202.311 4.92959 202.155 4.11601 201.849 3.32383C201.543 2.53701 201.092 1.88935 200.507 1.38621C199.922 0.883074 199.235 0.636857 198.446 0.636857C197.668 0.636857 197.003 0.856311 196.444 1.30057C195.886 1.74483 195.468 2.31755 195.183 3.01874C194.899 3.72527 194.759 4.45857 194.759 5.22398C194.759 6.01081 194.904 6.79763 195.194 7.58445C195.484 8.37128 195.919 9.02964 196.509 9.54884C197.094 10.068 197.808 10.3303 198.645 10.3303C199.412 10.3357 200.078 10.1109 200.631 9.67194Z" fill="white"/>
<path d="M215.975 8.99226C215.218 7.31691 214.633 5.98948 214.214 5.02602C213.796 4.05721 213.388 3.04023 212.991 1.96437L212.975 2.61738C212.883 5.52381 212.83 7.6006 212.808 8.84239C212.808 8.99226 212.803 9.09931 212.792 9.16889C212.792 9.5061 212.776 9.81655 212.749 10.1056L213.871 10.0467V10.7051H211.021V10.2126C211.44 10.2019 211.708 10.0842 211.837 9.86472C211.96 9.63991 212.035 9.3027 212.051 8.84239L212.379 0.877805L211.305 0.920625V0.27832H213.592L215.62 4.95644C216.356 6.68531 216.925 7.99133 217.322 8.88521H217.354C217.472 8.58546 217.73 7.94851 218.116 6.96364C218.492 6.01089 218.926 4.96179 219.415 3.8217C219.984 2.48892 220.472 1.31136 220.88 0.27832H223.091V0.770754C222.732 0.760049 222.469 0.856395 222.302 1.05979C222.13 1.26319 222.05 1.60575 222.05 2.09283L222.066 2.39257L222.452 9.16889C222.474 9.39905 222.479 9.70414 222.479 10.0895L223.569 10.0467V10.7051H220.225V10.2126C220.612 10.2019 220.88 10.0895 221.014 9.87543C221.154 9.66132 221.223 9.32947 221.223 8.86915C221.223 8.68181 221.218 8.53729 221.207 8.43559L220.821 2.09283C220.799 2.141 220.773 2.20523 220.74 2.28552C220.703 2.36581 220.665 2.46216 220.628 2.56921L217.268 10.8496H216.823L215.975 8.99226Z" fill="white"/>
<path d="M230.857 10.2127C231.206 10.202 231.453 10.1217 231.603 9.97179C231.753 9.82192 231.839 9.64529 231.855 9.44189C231.877 9.23849 231.882 8.88523 231.882 8.37673V1.94833C231.882 1.53083 231.898 1.17221 231.925 0.877823L230.852 0.936701V0.283691H234.211V0.776125C233.863 0.78683 233.616 0.867118 233.465 1.01699C233.315 1.16686 233.229 1.34349 233.213 1.54689C233.192 1.75029 233.181 2.10356 233.181 2.61205V8.93875C233.181 9.4633 233.165 9.85939 233.138 10.1163L234.211 10.0574V10.7051H230.852V10.2127H230.857Z" fill="white"/>
<path d="M240.92 10.2126C241.167 10.2126 241.365 10.1538 241.516 10.0414C241.666 9.92896 241.789 9.77909 241.881 9.59711C241.977 9.41512 242.085 9.13679 242.219 8.77281L242.369 8.35532L245.444 0H245.804L249.131 8.47307C249.239 8.7407 249.335 9.02974 249.416 9.34554C249.496 9.65598 249.528 9.9129 249.518 10.1109L250.532 10.0521V10.7051H247.113V10.2126C247.698 10.2019 247.994 9.96643 247.994 9.49541C247.994 9.30807 247.945 9.07256 247.843 8.79422L247.323 7.39186L243.442 7.48285C243.292 7.88964 243.12 8.41955 242.922 9.07791C242.825 9.40441 242.696 9.74698 242.552 10.1056L243.716 10.0467V10.7051H240.925V10.2126H240.92ZM247.119 6.85125L246.056 4.00905L245.385 2.17848H245.358L244.73 3.85918L243.925 6.12331L243.673 6.85125H247.119Z" fill="white"/>
<path d="M85.7201 156.262H35.8777V156.481H85.7201V156.262Z" fill="white"/>
<path d="M300.122 156.262H244.076V156.481H300.122V156.262Z" fill="white"/>
<path d="M66.367 5.02075H35.8777V5.24021H66.367V5.02075Z" fill="white"/>
<path d="M300.117 5.02075H269.628V5.24021H300.117V5.02075Z" fill="white"/>
</g>
<defs>
<clipPath id="clip0_13_92">
<rect width="336" height="162" fill="white"/>
</clipPath>
</defs>
</svg>
