<svg width="216" height="104" viewBox="0 0 216 104" fill="none" xmlns="http://www.w3.org/2000/svg">
<g clip-path="url(#clip0_15_197)">
<path d="M81.8859 67.9715C78.8153 68.0952 77.9838 70.2359 79.6605 70.3734C82.8899 70.6551 82.0411 77.1633 74.2714 77.1633C67.1607 76.7372 71.3112 64.4116 72.7292 59.862L78.867 42.8735C79.0292 42.413 78.6324 42.2893 78.5668 42.2618C78.2908 42.1484 78.0942 42.2446 77.6215 42.5333C76.2138 43.2308 74.5233 43.461 73.3364 43.5847C72.7085 43.6329 72.0599 43.6363 71.8115 44.3407C69.5654 51.3471 64.3488 61.1953 64.5972 68.779C64.2004 83.6371 83.1728 79.1494 85.4395 72.2976C86.2124 70.4696 85.9295 67.8924 81.8859 67.9715Z" fill="#D53A1A"/>
<path d="M49.2198 49.8936C49.2198 49.8936 46.3631 48.2889 44.1171 47.1378C21.943 36.5543 33.4423 23.672 50.0375 23.1909C57.6934 23.1909 65.0802 24.7578 70.2278 28.4345C72.9327 30.3657 73.6607 33.204 72.3117 38.6779C72.222 39.0387 72.2737 39.3788 72.4635 39.6606C73.6193 40.7946 75.2926 40.1726 77.0591 39.2517C79.2672 38.1006 80.2263 35.9804 78.9946 33.0081C69.3031 18.5383 32.1968 15.3289 25.1861 33.6954C22.4536 40.798 30.1854 47.9109 39.6491 52.0584C62.0199 61.8688 49.0404 76.8643 32.9869 77.2183C15.0806 76.7406 6.00672 67.7069 6.68985 61.3499C6.81406 60.1919 7.00727 59.3191 7.44888 57.8244C7.7939 55.7111 4.45416 55.7008 2.63248 56.3434C0.80735 56.8863 -0.11384 58.034 0.0103652 59.2607C0.448534 63.5422 3.87453 67.2052 6.28963 69.5487C9.39477 72.5107 18.2927 79.1941 33.739 79.926C38.4036 80.1837 43.2476 79.5824 48.9128 76.9777C60.2983 72.0846 61.6714 56.4705 49.2198 49.8936Z" fill="#D53A1A"/>
<path d="M215.607 55.1373C214.782 52.3642 210.763 48.2271 204.28 45.5503C204.501 31.077 201.592 23.9778 185.922 22.7648C168.067 22.7648 157.703 30.9017 147.314 44.4782C140.4 54.1785 131.996 65.2087 123.119 71.0297C110.943 79.5583 98.7605 76.1805 95.8762 63.1573C92.564 50.7767 98.5328 34.5029 109.811 28.2181C117.581 23.5551 130.667 22.8198 129.902 34.0046C129.953 38.4957 131.578 38.6641 135.263 35.5887C142.895 28.2318 131.019 22.7717 121.031 22.8335C99.5471 22.3731 79.8226 49.1514 90.7217 68.5659C98.7571 82.1252 117.077 80.5479 129.029 72.1533C142.633 62.9683 148.525 52.6563 156.616 41.4852C173.142 18.4008 202.876 19.3183 199.253 43.9284C187.616 40.9973 164.272 43.3545 158.113 59.5665C156.375 64.573 156.554 69.3562 158.935 72.9058C165.079 82.2179 182.592 79.761 190.262 74.4109C200.04 67.4595 202.651 60.5939 204.08 47.9865C206.315 48.7287 208.834 49.7836 210.739 51.1891C218.557 56.9687 209.693 57.4739 211.908 59.1129C214.12 60.7486 217.07 60.0544 215.607 55.1373ZM193.922 63.4013C185.866 76.8781 158.331 83.4412 162.568 63.2535C167.625 48.2511 185.628 43.7394 198.76 46.5846C197.638 56.0032 196.275 59.4669 193.922 63.4013Z" fill="#D53A1A"/>
<path d="M65.2529 103.804C64.9113 103.674 64.6353 103.468 64.4214 103.189C64.2075 102.911 64.104 102.554 64.104 102.127C64.104 101.725 64.2351 101.365 64.5008 101.042C64.7664 100.719 65.1356 100.457 65.6083 100.251C65.353 99.9248 65.1666 99.6293 65.0528 99.3579C64.9389 99.0864 64.8803 98.8012 64.8803 98.5022C64.8872 98.0487 65.0562 97.6879 65.384 97.413C65.7118 97.1381 66.1361 97.0006 66.6571 97.0006C66.9711 97.0006 67.2505 97.059 67.492 97.1759C67.7336 97.2927 67.9233 97.4542 68.0579 97.6604C68.1924 97.8631 68.258 98.0899 68.258 98.3407C68.258 98.7119 68.1338 99.0486 67.8888 99.3579C67.6439 99.6671 67.2402 99.9626 66.6847 100.241C66.84 100.406 67.0953 100.674 67.4506 101.045C67.7267 101.33 68.0613 101.66 68.4581 102.031C68.5202 101.815 68.5547 101.612 68.5547 101.42C68.5547 101.165 68.4995 100.945 68.3856 100.76C68.2752 100.574 68.0855 100.475 67.8233 100.464V100.148H69.5035V100.54L68.7065 100.502C68.9032 100.674 69.0032 100.963 69.0032 101.361C69.0032 101.681 68.9411 102.007 68.81 102.347L69.0032 102.519C69.0929 102.602 69.1895 102.688 69.2896 102.777C69.5656 103.024 69.8071 103.213 70.021 103.34C70.2315 103.468 70.3936 103.533 70.5006 103.533V103.849H69.607C69.5345 103.849 69.3965 103.784 69.1861 103.65C68.9756 103.516 68.7203 103.32 68.4167 103.055C67.9233 103.687 67.2367 104 66.3535 104C65.9671 104 65.5979 103.935 65.2529 103.804ZM68.12 102.787C67.9923 102.674 67.8992 102.588 67.8405 102.529L67.6956 102.395C67.599 102.299 67.3333 102.038 66.8952 101.609C66.457 101.179 66.112 100.822 65.8636 100.533C65.5876 100.698 65.3875 100.921 65.2598 101.196C65.1321 101.475 65.0666 101.736 65.0666 101.983C65.0666 102.492 65.2149 102.877 65.5082 103.134C65.8015 103.392 66.1568 103.523 66.5743 103.523C67.2264 103.523 67.7405 103.279 68.12 102.787ZM67.2643 99.241C67.4437 98.9558 67.5335 98.6637 67.5335 98.3717C67.5335 98.059 67.4506 97.8047 67.2885 97.6054C67.1263 97.4095 66.8986 97.3099 66.6123 97.3099C66.3432 97.3099 66.1223 97.4095 65.9498 97.6054C65.7773 97.8047 65.6911 98.0762 65.6911 98.4266C65.6911 98.9043 65.9533 99.4335 66.4777 100.014C66.8227 99.7839 67.0849 99.5262 67.2643 99.241Z" fill="#904621"/>
<path d="M81.1651 103.533C81.3893 103.526 81.548 103.474 81.6446 103.378C81.7412 103.282 81.7964 103.168 81.8068 103.038C81.8206 102.907 81.824 102.68 81.824 102.354V98.2237C81.824 97.9557 81.8344 97.7255 81.8517 97.5365L81.1616 97.5743V97.1551H85.7779L85.8262 98.8285H85.5088C85.5088 98.3062 85.395 97.9488 85.1672 97.7564C84.9395 97.564 84.6221 97.4747 84.2116 97.4884L83.387 97.509C83.1558 97.5159 82.9902 97.5571 82.8867 97.6396C82.7832 97.7186 82.7211 97.832 82.6935 97.9729C82.6693 98.1172 82.6555 98.3406 82.6555 98.6464V100.176L84.46 100.186L84.3944 99.3646H84.8153V101.371H84.4979C84.4979 101.138 84.4703 100.956 84.4117 100.832C84.353 100.708 84.2668 100.626 84.1494 100.584C84.0321 100.543 83.8665 100.523 83.6561 100.523L83.3594 100.533L82.659 100.56V102.749C82.659 103.079 82.6486 103.33 82.6314 103.495L84.4634 103.467C84.9119 103.461 85.2535 103.347 85.4916 103.127C85.7262 102.907 85.8469 102.526 85.8469 101.986H86.1747L86.116 103.849H81.1616V103.533H81.1651Z" fill="#904621"/>
<path d="M91.3568 98.8595C91.1256 98.3165 90.9876 97.8836 90.9428 97.5606L90.4045 97.5777V97.1585H92.6299V97.4747L92.6195 97.485C92.4091 97.4987 92.2538 97.5434 92.1538 97.6224C92.0537 97.7014 92.0054 97.8183 92.0054 97.9729C92.0054 98.1207 92.0503 98.2993 92.14 98.5193L92.3884 99.1309C92.4539 99.289 92.5505 99.5329 92.6816 99.8559C92.8127 100.182 92.937 100.478 93.0508 100.746L93.2992 101.33C93.5476 101.897 93.7236 102.316 93.8271 102.591H93.8443L94.1997 101.567L94.3239 101.224L95.1692 98.8629L95.39 98.2512C95.5108 97.9076 95.6039 97.6705 95.6695 97.5434L94.9311 97.5812V97.162H96.8805V97.4781C96.5976 97.4918 96.3837 97.564 96.2318 97.698C96.08 97.832 95.9455 98.0691 95.8247 98.4162L93.7995 103.952H93.5304L91.3568 98.8595Z" fill="#904621"/>
<path d="M101.079 103.533C101.303 103.526 101.462 103.474 101.559 103.378C101.655 103.282 101.711 103.168 101.721 103.038C101.735 102.907 101.738 102.68 101.738 102.354V98.2237C101.738 97.9557 101.748 97.7255 101.766 97.5365L101.076 97.5743V97.1551H105.692L105.74 98.8285H105.423C105.423 98.3062 105.309 97.9488 105.081 97.7564C104.854 97.564 104.536 97.4747 104.126 97.4884L103.301 97.509C103.07 97.5159 102.904 97.5571 102.801 97.6396C102.697 97.7186 102.635 97.832 102.608 97.9729C102.583 98.1172 102.57 98.3406 102.57 98.6464V100.176L104.374 100.186L104.308 99.3646H104.729V101.371H104.412C104.412 101.138 104.384 100.956 104.326 100.832C104.267 100.708 104.181 100.626 104.064 100.584C103.946 100.543 103.781 100.523 103.57 100.523L103.273 100.533L102.573 100.56V102.749C102.573 103.079 102.563 103.33 102.545 103.495L104.377 103.467C104.826 103.461 105.168 103.347 105.406 103.127C105.64 102.907 105.761 102.526 105.761 101.986H106.089L106.03 103.849H101.076V103.533H101.079Z" fill="#904621"/>
<path d="M111.975 98.4265H111.964L111.992 102.519C111.992 102.945 111.985 103.261 111.975 103.464L112.665 103.426V103.845H110.909V103.529C111.164 103.529 111.333 103.457 111.416 103.309C111.499 103.162 111.54 102.983 111.54 102.773L111.55 97.5331L110.909 97.5709V97.1517H112.051L116.139 102.601H116.149L116.16 98.2237C116.16 97.9557 116.17 97.7255 116.187 97.5365L115.497 97.5743V97.1551H117.264V97.4712C117.071 97.4781 116.929 97.5125 116.836 97.5812C116.743 97.6499 116.684 97.7392 116.66 97.8526C116.636 97.966 116.622 98.1207 116.622 98.3131V98.6464L116.601 104H116.139L111.975 98.4265Z" fill="#904621"/>
<path d="M123.512 103.533C123.788 103.519 123.964 103.443 124.043 103.302C124.123 103.162 124.164 102.945 124.164 102.653V102.357L124.174 97.5125L123.188 97.5228C122.791 97.5228 122.508 97.6568 122.339 97.9179C122.17 98.1825 122.084 98.6017 122.084 99.1756H121.728L121.787 97.1585H127.383L127.442 99.1756H127.076C127.069 98.7735 127.031 98.454 126.955 98.2134C126.883 97.9729 126.755 97.7942 126.583 97.6774C126.407 97.5606 126.155 97.5021 125.83 97.5021H125.016L125.006 102.711C125.006 103.048 124.996 103.302 124.978 103.467L125.775 103.43V103.849H123.519V103.533H123.512Z" fill="#904621"/>
<path d="M133.435 103.495C132.924 103.158 132.545 102.722 132.303 102.189C132.058 101.657 131.938 101.093 131.938 100.502C131.938 99.935 132.065 99.3818 132.317 98.8491C132.569 98.3131 132.948 97.8733 133.449 97.5262C133.949 97.1791 134.56 97.0039 135.277 97.0039C136.012 97.0039 136.64 97.1791 137.154 97.5262C137.668 97.8733 138.055 98.3131 138.31 98.8491C138.565 99.3852 138.693 99.935 138.693 100.502C138.693 101.062 138.565 101.612 138.313 102.151C138.062 102.691 137.682 103.134 137.182 103.481C136.678 103.828 136.071 104.003 135.353 104.003C134.587 104 133.949 103.832 133.435 103.495ZM136.657 103.186C137.013 102.9 137.282 102.536 137.465 102.089C137.647 101.643 137.737 101.175 137.737 100.684C137.737 100.141 137.637 99.6188 137.44 99.1103C137.244 98.6017 136.954 98.1894 136.578 97.8664C136.202 97.5434 135.76 97.3819 135.253 97.3819C134.753 97.3819 134.325 97.5228 133.966 97.808C133.607 98.0932 133.338 98.4608 133.155 98.911C132.973 99.3646 132.883 99.8353 132.883 100.327C132.883 100.828 132.976 101.334 133.162 101.842C133.349 102.347 133.628 102.77 134.008 103.103C134.384 103.436 134.843 103.605 135.381 103.605C135.874 103.608 136.302 103.467 136.657 103.186Z" fill="#904621"/>
<path d="M144.824 103.876C144.52 103.794 144.254 103.674 144.023 103.512L144.072 103.924H143.571L143.513 101.887H143.885C143.916 102.433 144.106 102.856 144.451 103.155C144.796 103.45 145.234 103.598 145.766 103.598C146.156 103.598 146.483 103.491 146.749 103.278C147.015 103.065 147.146 102.773 147.146 102.402C147.146 102.127 147.07 101.894 146.921 101.698C146.77 101.502 146.587 101.34 146.366 101.21C146.145 101.079 145.845 100.928 145.469 100.756C145.041 100.553 144.7 100.375 144.448 100.22C144.196 100.069 143.978 99.8663 143.799 99.612C143.62 99.3611 143.53 99.0484 143.53 98.6808C143.53 98.4265 143.589 98.1722 143.709 97.9145C143.827 97.6602 144.034 97.4437 144.323 97.265C144.613 97.0864 145 96.997 145.479 96.997C145.766 96.997 146.055 97.0348 146.349 97.107C146.639 97.1791 146.908 97.3063 147.149 97.485L147.111 97.0726H147.601V99.1756H147.256C147.225 98.6739 147.063 98.2478 146.77 97.9007C146.48 97.5537 146.069 97.3784 145.545 97.3784C145.162 97.3784 144.858 97.485 144.641 97.698C144.424 97.9111 144.313 98.1791 144.313 98.4952C144.313 98.7495 144.386 98.9694 144.534 99.155C144.682 99.3405 144.862 99.4917 145.072 99.6154C145.283 99.7391 145.579 99.8869 145.966 100.066C146.4 100.261 146.752 100.44 147.018 100.602C147.284 100.76 147.508 100.969 147.694 101.227C147.881 101.485 147.974 101.801 147.974 102.179C147.974 102.536 147.887 102.852 147.708 103.124C147.532 103.399 147.273 103.612 146.935 103.763C146.597 103.914 146.193 103.993 145.724 103.993C145.431 104 145.127 103.959 144.824 103.876Z" fill="#904621"/>
<path d="M53.2326 6.62155C52.7393 6.35009 52.3563 5.9618 52.0803 5.46012C51.8043 4.955 51.6663 4.36054 51.6663 3.6733C51.6663 3.04791 51.7939 2.46032 52.0458 1.90365C52.2976 1.35043 52.6772 0.896847 53.1843 0.549791C53.688 0.202735 54.2987 0.0274887 55.0095 0.0274887C55.3545 0.0274887 55.7064 0.0721593 56.0618 0.164937C56.4171 0.257714 56.7276 0.38829 56.9967 0.553227L56.9588 0.0927765H57.4867V2.28164H57.1416C57.0968 1.69405 56.8829 1.23703 56.5034 0.903719C56.1239 0.573844 55.6477 0.405471 55.0785 0.405471C54.623 0.405471 54.209 0.536046 53.8364 0.797197C53.4638 1.05835 53.1636 1.41915 52.9428 1.88304C52.722 2.34692 52.6116 2.86579 52.6116 3.44651C52.6116 4.0444 52.722 4.58045 52.9394 5.05121C53.1567 5.52197 53.4603 5.89308 53.8502 6.1611C54.2401 6.42913 54.6851 6.56314 55.1854 6.56314C55.4614 6.56314 55.7443 6.5219 56.0341 6.44287C56.324 6.36384 56.5896 6.24357 56.8277 6.08551V3.99286L56.1549 4.03066V3.61144H58.325V3.92757C58.018 3.92757 57.8248 4.0444 57.7489 4.27807C57.673 4.51173 57.635 4.77288 57.635 5.06839V6.52878H57.3763C57.1071 6.52878 56.7621 6.61125 56.3412 6.77618C56.148 6.85178 55.9203 6.91363 55.6581 6.9583C55.3959 7.00297 55.1544 7.02359 54.937 7.02359C54.2918 7.02703 53.726 6.88958 53.2326 6.62155Z" fill="#904621"/>
<path d="M62.303 6.55627C62.4617 6.55627 62.5893 6.51847 62.6859 6.44631C62.7825 6.37415 62.8619 6.27794 62.9206 6.1611C62.9827 6.04427 63.0517 5.86559 63.1379 5.63193L63.2345 5.36391L65.2115 0H65.4426L67.5817 5.4395C67.6507 5.61131 67.7128 5.79687 67.7646 5.9996C67.8163 6.1989 67.837 6.36384 67.8301 6.49098L68.4822 6.45318V6.8724H66.2844V6.55627C66.6605 6.5494 66.8503 6.3982 66.8503 6.09582C66.8503 5.97555 66.8192 5.82436 66.7537 5.64567L66.419 4.74539L63.9245 4.80381C63.8279 5.06496 63.7175 5.40514 63.5899 5.82779C63.5278 6.0374 63.445 6.25732 63.3518 6.48754L64.1005 6.44975V6.8724H62.3064V6.55627H62.303ZM66.2844 4.39833L65.6013 2.57371L65.1701 1.39853H65.1528L64.7491 2.4775L64.2316 3.93101L64.0695 4.39833H66.2844Z" fill="#904621"/>
<path d="M74.075 6.90332C73.7714 6.82085 73.5057 6.70059 73.2745 6.53909L73.3228 6.95143H72.8226L72.7639 4.91376H73.14C73.171 5.46356 73.3608 5.88277 73.7058 6.18172C74.0508 6.47723 74.489 6.62499 75.0203 6.62499C75.4102 6.62499 75.7379 6.51847 76.0036 6.30542C76.2693 6.09238 76.4004 5.8003 76.4004 5.42919C76.4004 5.1543 76.3245 4.92064 76.1761 4.72821C76.0243 4.53235 75.8414 4.37084 75.6206 4.24027C75.3998 4.10969 75.0997 3.9585 74.7236 3.78669C74.2958 3.58396 73.9542 3.40527 73.7024 3.25064C73.4505 3.09601 73.2331 2.89671 73.0537 2.64244C72.8743 2.38816 72.7846 2.0789 72.7846 1.71123C72.7846 1.45695 72.8433 1.20267 72.964 0.944954C73.0813 0.690675 73.2883 0.474195 73.5782 0.295512C73.868 0.11683 74.2544 0.0274887 74.734 0.0274887C75.0203 0.0274887 75.3101 0.0652869 75.6034 0.137447C75.8967 0.209607 76.1623 0.336747 76.4038 0.515429L76.3659 0.103085H76.8558V2.20604H76.5108C76.4797 1.70092 76.3176 1.27827 76.0243 0.931209C75.731 0.584153 75.3239 0.408907 74.7995 0.408907C74.4165 0.408907 74.1129 0.515429 73.8956 0.728473C73.6782 0.941518 73.5678 1.20954 73.5678 1.52567C73.5678 1.77995 73.6403 1.99987 73.7886 2.18542C73.937 2.37098 74.1164 2.52217 74.3268 2.64587C74.5373 2.76614 74.834 2.91733 75.2204 3.09601C75.6551 3.29531 76.0071 3.47056 76.2727 3.63206C76.5384 3.79013 76.7626 3.99974 76.9489 4.25745C77.1353 4.51516 77.2284 4.8313 77.2284 5.20928C77.2284 5.56664 77.1422 5.88277 76.9628 6.15423C76.7868 6.42913 76.528 6.64217 76.1899 6.79337C75.8518 6.94799 75.4481 7.02359 74.9789 7.02359C74.6822 7.02703 74.3786 6.98579 74.075 6.90332Z" fill="#904621"/>
<path d="M83.4871 6.55627C83.7631 6.54252 83.9391 6.46693 84.0184 6.32604C84.0978 6.18516 84.1392 5.96868 84.1392 5.6766V5.38109L84.1495 0.536046L83.1628 0.546355C82.766 0.546355 82.4831 0.67693 82.314 0.941517C82.145 1.2061 82.0587 1.62532 82.0587 2.19917H81.7034L81.762 0.182117H87.3582L87.4168 2.19917H87.0511C87.0442 1.79713 87.0063 1.47756 86.9303 1.23703C86.8579 0.996497 86.7302 0.82125 86.5577 0.700984C86.3818 0.584153 86.1299 0.525737 85.8056 0.525737H84.9914L84.981 5.73502C84.981 6.07176 84.9707 6.32604 84.9534 6.49098L85.7504 6.45318V6.8724H83.494V6.55627H83.4871Z" fill="#904621"/>
<path d="M91.9986 6.55627C92.2228 6.5494 92.3815 6.49785 92.4781 6.40164C92.5747 6.30543 92.6299 6.19203 92.6403 6.06146C92.6541 5.93088 92.6575 5.70409 92.6575 5.37765V1.25078C92.6575 0.982754 92.6679 0.752529 92.6851 0.563538L91.9951 0.601336V0.18212C92.661 0.168375 93.1613 0.161503 93.5028 0.161503C93.8099 0.161503 94.0411 0.164939 94.1929 0.171811C95.0968 0.185556 95.7558 0.336749 96.1767 0.62539C96.5942 0.91403 96.8046 1.33325 96.8046 1.88304C96.8115 2.32287 96.6804 2.71803 96.4113 3.06853C96.1422 3.41902 95.6764 3.65955 95.0105 3.79357C95.1209 3.87603 95.2175 3.97568 95.3073 4.08908C95.397 4.20247 95.5177 4.38116 95.673 4.62513L96.325 5.64911C96.4665 5.87247 96.5838 6.04428 96.677 6.16111C96.7701 6.27794 96.8805 6.37415 97.0116 6.44631C97.1427 6.51847 97.3049 6.55627 97.4946 6.55627V6.8724H96.2836C96.1111 6.72464 95.9662 6.57345 95.8455 6.41882C95.7282 6.26419 95.5867 6.06146 95.428 5.81061L94.7863 4.78663L94.6621 4.58733C94.5586 4.41552 94.4689 4.27463 94.393 4.16811C94.3171 4.05815 94.2343 3.96538 94.1446 3.88291C94.0859 3.88978 93.9962 3.89321 93.8754 3.89321C93.7029 3.89321 93.5753 3.88978 93.4925 3.88291V5.73845C93.4925 6.0752 93.4821 6.32948 93.4649 6.49442L94.1549 6.45662V6.8724H91.9951V6.55627H91.9986ZM95.8765 1.98956C95.8765 1.50506 95.7351 1.14082 95.4556 0.900286C95.1727 0.659752 94.7414 0.536049 94.1584 0.536049C93.9341 0.536049 93.7754 0.580719 93.6788 0.67006C93.5822 0.759402 93.527 0.865924 93.5166 0.996499C93.5028 1.12364 93.4959 1.35043 93.4959 1.67343V3.50836C93.6891 3.52211 93.8271 3.52898 93.9168 3.52898C95.2244 3.52898 95.8765 3.01355 95.8765 1.98956Z" fill="#904621"/>
<path d="M103.277 6.51847C102.767 6.18172 102.387 5.74532 102.146 5.21271C101.901 4.6801 101.78 4.11657 101.78 3.52554C101.78 2.95857 101.907 2.40877 102.159 1.87273C102.411 1.33668 102.791 0.896847 103.291 0.549791C103.791 0.202735 104.402 0.0274887 105.12 0.0274887C105.854 0.0274887 106.482 0.202735 106.996 0.549791C107.51 0.896847 107.897 1.34012 108.152 1.87273C108.408 2.40877 108.535 2.95857 108.535 3.52554C108.535 4.08564 108.408 4.63543 108.156 5.17491C107.904 5.7144 107.524 6.15767 107.024 6.50472C106.52 6.85178 105.913 7.02703 105.195 7.02703C104.429 7.02703 103.791 6.85865 103.277 6.51847ZM106.5 6.20921C106.855 5.92744 107.124 5.55977 107.307 5.11306C107.49 4.66636 107.579 4.19903 107.579 3.70766C107.579 3.16474 107.479 2.64244 107.283 2.13388C107.086 1.62876 106.796 1.21298 106.42 0.889975C106.044 0.566972 105.603 0.408907 105.095 0.408907C104.595 0.408907 104.167 0.549791 103.808 0.834996C103.45 1.1202 103.181 1.48787 102.998 1.93802C102.815 2.39159 102.725 2.86235 102.725 3.35373C102.725 3.85885 102.818 4.36397 103.005 4.86909C103.191 5.37421 103.47 5.79687 103.85 6.13018C104.226 6.46349 104.685 6.63186 105.223 6.63186C105.716 6.6353 106.144 6.49098 106.5 6.20921Z" fill="#904621"/>
<path d="M114.324 1.45351H114.314L114.342 5.54602C114.342 5.97211 114.335 6.28824 114.324 6.49098L115.014 6.45318V6.8724H113.258V6.55627C113.514 6.55627 113.683 6.48411 113.765 6.33635C113.848 6.18859 113.89 6.00991 113.89 5.8003L113.9 0.560099L113.258 0.597898V0.182117H114.4L118.489 5.63193H118.499L118.509 1.25421C118.509 0.986188 118.52 0.755963 118.537 0.566972L117.847 0.60477V0.182117H119.613V0.498248C119.42 0.50512 119.279 0.539482 119.186 0.608206C119.093 0.673494 119.034 0.766271 119.01 0.879666C118.986 0.99306 118.972 1.14769 118.972 1.34012V1.67343L118.951 7.02703H118.489L114.324 1.45351Z" fill="#904621"/>
<path d="M125.758 6.51847C125.247 6.18172 124.868 5.74532 124.626 5.21271C124.381 4.6801 124.261 4.11657 124.261 3.52554C124.261 2.95857 124.388 2.40877 124.64 1.87273C124.892 1.33668 125.272 0.896847 125.772 0.549791C126.272 0.202735 126.883 0.0274887 127.6 0.0274887C128.335 0.0274887 128.963 0.202735 129.477 0.549791C129.991 0.896847 130.378 1.34012 130.633 1.87273C130.888 2.40877 131.016 2.95857 131.016 3.52554C131.016 4.08564 130.888 4.63543 130.637 5.17491C130.385 5.7144 130.005 6.15767 129.505 6.50472C129.001 6.85178 128.394 7.02703 127.676 7.02703C126.91 7.02703 126.269 6.85865 125.758 6.51847ZM128.977 6.20921C129.332 5.92744 129.602 5.55977 129.784 5.11306C129.967 4.66636 130.057 4.19903 130.057 3.70766C130.057 3.16474 129.957 2.64244 129.76 2.13388C129.564 1.62876 129.274 1.21298 128.898 0.889975C128.522 0.566972 128.08 0.408907 127.573 0.408907C127.073 0.408907 126.645 0.549791 126.286 0.834996C125.927 1.1202 125.658 1.48787 125.475 1.93802C125.292 2.39159 125.203 2.86235 125.203 3.35373C125.203 3.85885 125.296 4.36397 125.482 4.86909C125.668 5.37421 125.948 5.79687 126.327 6.13018C126.703 6.46349 127.162 6.63186 127.701 6.63186C128.194 6.6353 128.622 6.49098 128.977 6.20921Z" fill="#904621"/>
<path d="M138.841 5.77282C138.355 4.69729 137.979 3.84511 137.71 3.22659C137.44 2.60464 137.178 1.95176 136.923 1.26109L136.913 1.6803C136.854 3.54616 136.819 4.8794 136.806 5.6766C136.806 5.77282 136.802 5.84154 136.795 5.88621C136.795 6.10269 136.785 6.30199 136.768 6.48755L137.489 6.44975V6.8724H135.657V6.55627C135.926 6.5494 136.098 6.4738 136.181 6.33292C136.261 6.1886 136.309 5.97212 136.319 5.6766L136.53 0.563538L135.84 0.591028V0.178684H137.309L138.614 3.18192C139.086 4.29181 139.452 5.13025 139.707 5.70409H139.728C139.804 5.51166 139.969 5.10276 140.218 4.4705C140.459 3.85885 140.739 3.18536 141.053 2.45345C141.418 1.59783 141.732 0.841871 141.995 0.178684H143.416V0.494815C143.185 0.487942 143.016 0.549794 142.909 0.680369C142.799 0.810945 142.747 1.03086 142.747 1.34356L142.757 1.53598L143.006 5.88621C143.019 6.03397 143.023 6.22983 143.023 6.47724L143.723 6.44975V6.8724H141.574V6.55627C141.822 6.5494 141.995 6.47724 142.081 6.33979C142.171 6.20234 142.215 5.9893 142.215 5.69378C142.215 5.57352 142.212 5.48074 142.205 5.41545L141.957 1.34356C141.943 1.37448 141.926 1.41572 141.905 1.46726C141.881 1.5188 141.857 1.58065 141.833 1.64938L139.673 6.96518H139.386L138.841 5.77282Z" fill="#904621"/>
<path d="M148.408 6.55627C148.633 6.54939 148.791 6.49785 148.888 6.40164C148.985 6.30542 149.04 6.19203 149.05 6.06145C149.064 5.93088 149.067 5.70409 149.067 5.37765V1.25078C149.067 0.982752 149.078 0.752527 149.095 0.563536L148.405 0.601334V0.182117H150.565V0.498248C150.341 0.50512 150.182 0.556663 150.085 0.652877C149.989 0.74909 149.933 0.862485 149.923 0.993061C149.909 1.12364 149.902 1.35043 149.902 1.67686V5.73845C149.902 6.0752 149.892 6.32948 149.875 6.49441L150.565 6.45662V6.8724H148.405V6.55627H148.408Z" fill="#904621"/>
<path d="M154.877 6.55627C155.036 6.55627 155.164 6.51847 155.26 6.44631C155.357 6.37415 155.436 6.27794 155.495 6.1611C155.557 6.04427 155.626 5.86559 155.712 5.63193L155.809 5.36391L157.786 0H158.017L160.156 5.4395C160.225 5.61131 160.287 5.79687 160.339 5.9996C160.391 6.1989 160.411 6.36384 160.405 6.49098L161.057 6.45318V6.8724H158.859V6.55627C159.235 6.5494 159.425 6.3982 159.425 6.09582C159.425 5.97555 159.394 5.82436 159.328 5.64567L158.993 4.74539L156.499 4.80381C156.402 5.06496 156.292 5.40514 156.164 5.82779C156.102 6.0374 156.019 6.25732 155.926 6.48754L156.675 6.44975V6.8724H154.881V6.55627H154.877ZM158.862 4.39833L158.179 2.57371L157.748 1.39853H157.731L157.327 2.4775L156.81 3.93101L156.647 4.39833H158.862Z" fill="#904621"/>
<path d="M55.106 100.316H23.0645V100.457H55.106V100.316Z" fill="#904621"/>
<path d="M192.936 100.316H156.906V100.457H192.936V100.316Z" fill="#904621"/>
<path d="M42.6647 3.22316H23.0645V3.36404H42.6647V3.22316Z" fill="#904621"/>
<path d="M192.933 3.22316H173.332V3.36404H192.933V3.22316Z" fill="#904621"/>
</g>
<defs>
<clipPath id="clip0_15_197">
<rect width="216" height="104" fill="white"/>
</clipPath>
</defs>
</svg>
